<?xml version="1.0" encoding="UTF-8" standalone="no"?>
<svg
   width="48"
   height="48"
   viewBox="0 0 12.7 12.7"
   version="1.1"
   xmlns="http://www.w3.org/2000/svg">
  
  <!-- Main container -->
  <rect
     x="2.28"
     y="3.05"
     width="8.25"
     height="6.87"
     rx="0.69"
     ry="0.69"
     fill="currentColor"
     fill-opacity="0.1"
     stroke="currentColor"
     stroke-width="0.52" />
  
  <!-- Header/title bar -->
  <rect
     x="4.69"
     y="1.67"
     width="3.44"
     height="1.37"
     rx="0.34"
     ry="0.34"
     fill="currentColor" />
  
  <!-- Play button icon -->
  <path
     d="M 6.26,7.85 V 5.63 L 7.60,6.75 6.49,7.59 c -0.10,0.07 -0.17,0.16 -0.23,0.26 z M 8.29,7.32 7.81,7.72 c -0.16,0.14 -0.24,0.32 -0.24,0.54 0,0.19 0.08,0.37 0.21,0.51 0.14,0.14 0.32,0.21 0.51,0.21 0.19,0 0.37,-0.08 0.51,-0.21 0.14,-0.14 0.21,-0.32 0.21,-0.51 0,-0.19 -0.07,-0.37 -0.21,-0.51 z M 8.91,5.87 8.35,6.31 v 0 L 6.56,7.68 C 6.37,7.81 6.26,8.03 6.26,8.26 c 0,0.19 0.08,0.37 0.21,0.51 0.14,0.14 0.32,0.21 0.51,0.21 H 7.89 C 7.82,8.94 7.76,8.89 7.71,8.84 7.55,8.68 7.46,8.48 7.46,8.26 c 0,-0.24 0.10,-0.46 0.28,-0.62 L 8.77,6.78 C 8.92,6.65 9.01,6.44 9.01,6.24 c 0,-0.13 -0.03,-0.26 -0.10,-0.37 z M 7.55,5.52 8.36,6.17 8.85,5.79 C 8.84,5.77 8.82,5.75 8.80,5.73 8.65,5.55 8.44,5.52 8.29,5.52 Z"
     fill="currentColor" />
</svg>
