<?xml version="1.0" encoding="UTF-8" standalone="no"?>
<svg
   width="48"
   height="48"
   viewBox="0 0 12.7 12.7"
   version="1.1"
   id="svg4"
   sodipodi:docname="images.svg"
   inkscape:version="1.4.2 (ebf0e940d0, 2025-05-08)"
   xmlns:inkscape="http://www.inkscape.org/namespaces/inkscape"
   xmlns:sodipodi="http://sodipodi.sourceforge.net/DTD/sodipodi-0.dtd"
   xmlns="http://www.w3.org/2000/svg"
   xmlns:svg="http://www.w3.org/2000/svg">
  <defs
     id="defs4" />
  <sodipodi:namedview
     id="namedview4"
     pagecolor="#ffffff"
     bordercolor="#000000"
     borderopacity="0.25"
     inkscape:showpageshadow="2"
     inkscape:pageopacity="0.0"
     inkscape:pagecheckerboard="0"
     inkscape:deskcolor="#d1d1d1"
     inkscape:zoom="9.9375"
     inkscape:cx="23.949686"
     inkscape:cy="24"
     inkscape:window-width="1916"
     inkscape:window-height="1030"
     inkscape:window-x="0"
     inkscape:window-y="0"
     inkscape:window-maximized="0"
     inkscape:current-layer="svg4" />
  <!-- Background rectangles representing containers -->
  <rect
     x="3.03"
     y="3.61"
     width="7.55"
     height="7.55"
     rx="1.08"
     ry="1.08"
     fill="currentColor"
     fill-opacity="0.1"
     stroke="currentColor"
     stroke-width="0.6"
     id="rect1" />
  <!-- Vertical lines representing container layers -->
  <rect
     x="1.63"
     y="1.51"
     width="7.55"
     height="7.55"
     rx="1.08"
     ry="1.08"
     fill="none"
     stroke="currentColor"
     stroke-width="0.6"
     id="rect2"
     style="fill:#ffffff;fill-opacity:1" />
  <line
     x1="3.91"
     y1="2.60"
     x2="3.91"
     y2="7.74"
     stroke="currentColor"
     stroke-width="0.4"
     id="line2" />
  <line
     x1="5.60"
     y1="2.49"
     x2="5.60"
     y2="4.73"
     stroke="currentColor"
     stroke-width="0.34"
     id="line3" />
  <line
     x1="7.29"
     y1="2.49"
     x2="7.29"
     y2="4.73"
     stroke="currentColor"
     stroke-width="0.44"
     id="line4" />
  <!-- Play button icon -->
  <path
     d="M 5.45,7.14 V 5.39 L 6.50,6.27 5.63,6.93 c -0.08,0.06 -0.14,0.13 -0.18,0.21 z M 7.04,6.72 6.67,7.04 C 6.54,7.14 6.47,7.29 6.47,7.46 c 0,0.15 0.06,0.29 0.16,0.40 0.11,0.11 0.25,0.17 0.40,0.17 0.15,0 0.29,-0.06 0.40,-0.17 C 7.55,7.75 7.60,7.61 7.60,7.46 7.60,7.31 7.55,7.16 7.44,7.06 Z M 7.53,5.58 7.09,5.93 v 0 L 5.68,7.00 c -0.14,0.11 -0.23,0.28 -0.23,0.45 0,0.15 0.06,0.29 0.16,0.40 0.11,0.11 0.25,0.17 0.40,0.17 H 6.72 C 6.67,7.99 6.62,7.96 6.58,7.91 6.46,7.79 6.39,7.63 6.39,7.46 c 0,-0.19 0.08,-0.36 0.22,-0.48 L 7.42,6.29 C 7.54,6.19 7.61,6.03 7.61,5.87 c 0,-0.10 -0.03,-0.20 -0.08,-0.29 z M 6.46,5.31 7.09,5.82 7.48,5.52 C 7.47,5.51 7.46,5.49 7.44,5.47 7.33,5.33 7.16,5.31 7.04,5.31 Z"
     fill="currentColor"
     id="path4" />
</svg>
